# xmcd
#
# Track frame offsets: 
#        150
#        19060
#        33358
#        48151
#        59299
#        73167
#        87457
#        100816
#        112846
#        127321
#        140794
#        153375
#        165495
#        181403
#        196668
#        214455
#        223058
#        232890
#
# Disc length: 3290 seconds
#
# Revision: 0
# Processed by: cddbd v1.5.2PL0 Copyright (c) Steve Scherf et al.
# Submitted via: ExactAudioCopy v1.1
#
DISCID=040cd812
DTITLE=Various Artist - MNM Big Hits 2019 Vol. 4 - CD 1
DYEAR=2019
DGENRE=Top 40
TTITLE0=Marco Borsato, Armin Van Buuren and Davina Michelle - Hoe Het Da
TTITLE0=nst
TTITLE1=Shawn Mendes and Camila Cabello - Senorita
TTITLE2=Tiësto, Jonas Blue and Rita Ora - Ritual
TTITLE3=R3hab X A Touch Of Class - All Around The World (La La La)
TTITLE4=Dimitri Vegas and Like Mike, David Guetta, Daddy Yankee, Afro Br
TTITLE4=os and Natti Natasha - Instagram
TTITLE5=Lost Frequencies - Sun Is Shining
TTITLE6=Aya Nakamura - Pookie
TTITLE7=Y2K and Bbno$ - Lalala
TTITLE8=Normani - Motivation
TTITLE9=Henri PFR Feat. Soran - Going On
TTITLE10=Mabel - Mad Love
TTITLE11=Lil Kleine - Af En Toe
TTITLE12=Ali Gatie - It's You
TTITLE13=5 Seconds Of Summer - Teeth
TTITLE14=Loïc Nottet - 29
TTITLE15=Lil Nas X - Panini
TTITLE16=Lil Tecca - Ransom
TTITLE17=Ariana Grande and Social House - Boyfriend
EXTD=
EXTT0=
EXTT1=
EXTT2=
EXTT3=
EXTT4=
EXTT5=
EXTT6=
EXTT7=
EXTT8=
EXTT9=
EXTT10=
EXTT11=
EXTT12=
EXTT13=
EXTT14=
EXTT15=
EXTT16=
EXTT17=
PLAYORDER=
